<svg viewBox="0 0 700 420" xmlns="http://www.w3.org/2000/svg">
  <defs>
    <linearGradient id="bg1" x1="0%" y1="0%" x2="100%" y2="100%">
      <stop offset="0%" style="stop-color:#0d1b2a"/>
      <stop offset="100%" style="stop-color:#12263a"/>
    </linearGradient>
    <linearGradient id="chrome1" x1="0%" y1="0%" x2="0%" y2="100%">
      <stop offset="0%" style="stop-color:#f5f5f5"/>
      <stop offset="50%" style="stop-color:#c8c8c8"/>
      <stop offset="100%" style="stop-color:#999"/>
    </linearGradient>
  </defs>
  <rect width="700" height="420" fill="url(#bg1)"/>

  <!-- Three diatonic harmonicas in different "keys" -->
  <!-- Harmonica A - Red (Key of C) -->
  <g transform="translate(60, 100)">
    <rect x="0" y="0" width="260" height="18" rx="5" fill="#cc2200"/>
    <rect x="0" y="18" width="260" height="45" fill="url(#chrome1)"/>
    <rect x="0" y="63" width="260" height="18" rx="5" fill="#cc2200"/>
    <g fill="#1a1a1a">
      <rect x="10" y="24" width="17" height="13" rx="2" opacity="0.85"/>
      <rect x="33" y="24" width="17" height="13" rx="2" opacity="0.85"/>
      <rect x="56" y="24" width="17" height="13" rx="2" opacity="0.85"/>
      <rect x="79" y="24" width="17" height="13" rx="2" opacity="0.85"/>
      <rect x="102" y="24" width="17" height="13" rx="2" opacity="0.85"/>
      <rect x="125" y="24" width="17" height="13" rx="2" opacity="0.85"/>
      <rect x="148" y="24" width="17" height="13" rx="2" opacity="0.85"/>
      <rect x="171" y="24" width="17" height="13" rx="2" opacity="0.85"/>
      <rect x="194" y="24" width="17" height="13" rx="2" opacity="0.85"/>
      <rect x="217" y="24" width="17" height="13" rx="2" opacity="0.85"/>
      <rect x="10" y="40" width="17" height="17" rx="2" opacity="0.85"/>
      <rect x="33" y="40" width="17" height="17" rx="2" opacity="0.85"/>
      <rect x="56" y="40" width="17" height="17" rx="2" opacity="0.85"/>
      <rect x="79" y="40" width="17" height="17" rx="2" opacity="0.85"/>
      <rect x="102" y="40" width="17" height="17" rx="2" opacity="0.85"/>
      <rect x="125" y="40" width="17" height="17" rx="2" opacity="0.85"/>
      <rect x="148" y="40" width="17" height="17" rx="2" opacity="0.85"/>
      <rect x="171" y="40" width="17" height="17" rx="2" opacity="0.85"/>
      <rect x="194" y="40" width="17" height="17" rx="2" opacity="0.85"/>
      <rect x="217" y="40" width="17" height="17" rx="2" opacity="0.85"/>
    </g>
    <rect x="0" y="18" width="260" height="6" fill="white" opacity="0.2"/>
    <text x="130" y="97" font-size="11" fill="#cc2200" font-family="Arial" text-anchor="middle" font-weight="bold">KEY OF C • DIATONIC</text>
  </g>

  <!-- Harmonica B - Blue (Key of G) -->
  <g transform="translate(60, 200)">
    <rect x="0" y="0" width="260" height="18" rx="5" fill="#1155aa"/>
    <rect x="0" y="18" width="260" height="45" fill="url(#chrome1)"/>
    <rect x="0" y="63" width="260" height="18" rx="5" fill="#1155aa"/>
    <g fill="#1a1a1a">
      <rect x="10" y="24" width="17" height="13" rx="2" opacity="0.85"/>
      <rect x="33" y="24" width="17" height="13" rx="2" opacity="0.85"/>
      <rect x="56" y="24" width="17" height="13" rx="2" opacity="0.85"/>
      <rect x="79" y="24" width="17" height="13" rx="2" opacity="0.85"/>
      <rect x="102" y="24" width="17" height="13" rx="2" opacity="0.85"/>
      <rect x="125" y="24" width="17" height="13" rx="2" opacity="0.85"/>
      <rect x="148" y="24" width="17" height="13" rx="2" opacity="0.85"/>
      <rect x="171" y="24" width="17" height="13" rx="2" opacity="0.85"/>
      <rect x="194" y="24" width="17" height="13" rx="2" opacity="0.85"/>
      <rect x="217" y="24" width="17" height="13" rx="2" opacity="0.85"/>
      <rect x="10" y="40" width="17" height="17" rx="2" opacity="0.85"/>
      <rect x="33" y="40" width="17" height="17" rx="2" opacity="0.85"/>
      <rect x="56" y="40" width="17" height="17" rx="2" opacity="0.85"/>
      <rect x="79" y="40" width="17" height="17" rx="2" opacity="0.85"/>
      <rect x="102" y="40" width="17" height="17" rx="2" opacity="0.85"/>
      <rect x="125" y="40" width="17" height="17" rx="2" opacity="0.85"/>
      <rect x="148" y="40" width="17" height="17" rx="2" opacity="0.85"/>
      <rect x="171" y="40" width="17" height="17" rx="2" opacity="0.85"/>
      <rect x="194" y="40" width="17" height="17" rx="2" opacity="0.85"/>
      <rect x="217" y="40" width="17" height="17" rx="2" opacity="0.85"/>
    </g>
    <rect x="0" y="18" width="260" height="6" fill="white" opacity="0.2"/>
    <text x="130" y="97" font-size="11" fill="#7eb8d4" font-family="Arial" text-anchor="middle" font-weight="bold">KEY OF G • DIATONIC</text>
  </g>

  <!-- Harmonica C - Gold (Key of A) -->
  <g transform="translate(60, 300)">
    <rect x="0" y="0" width="260" height="18" rx="5" fill="#d4a017"/>
    <rect x="0" y="18" width="260" height="45" fill="url(#chrome1)"/>
    <rect x="0" y="63" width="260" height="18" rx="5" fill="#d4a017"/>
    <g fill="#1a1a1a">
      <rect x="10" y="24" width="17" height="13" rx="2" opacity="0.85"/>
      <rect x="33" y="24" width="17" height="13" rx="2" opacity="0.85"/>
      <rect x="56" y="24" width="17" height="13" rx="2" opacity="0.85"/>
      <rect x="79" y="24" width="17" height="13" rx="2" opacity="0.85"/>
      <rect x="102" y="24" width="17" height="13" rx="2" opacity="0.85"/>
      <rect x="125" y="24" width="17" height="13" rx="2" opacity="0.85"/>
      <rect x="148" y="24" width="17" height="13" rx="2" opacity="0.85"/>
      <rect x="171" y="24" width="17" height="13" rx="2" opacity="0.85"/>
      <rect x="194" y="24" width="17" height="13" rx="2" opacity="0.85"/>
      <rect x="217" y="24" width="17" height="13" rx="2" opacity="0.85"/>
      <rect x="10" y="40" width="17" height="17" rx="2" opacity="0.85"/>
      <rect x="33" y="40" width="17" height="17" rx="2" opacity="0.85"/>
      <rect x="56" y="40" width="17" height="17" rx="2" opacity="0.85"/>
      <rect x="79" y="40" width="17" height="17" rx="2" opacity="0.85"/>
      <rect x="102" y="40" width="17" height="17" rx="2" opacity="0.85"/>
      <rect x="125" y="40" width="17" height="17" rx="2" opacity="0.85"/>
      <rect x="148" y="40" width="17" height="17" rx="2" opacity="0.85"/>
      <rect x="171" y="40" width="17" height="17" rx="2" opacity="0.85"/>
      <rect x="194" y="40" width="17" height="17" rx="2" opacity="0.85"/>
      <rect x="217" y="40" width="17" height="17" rx="2" opacity="0.85"/>
    </g>
    <rect x="0" y="18" width="260" height="6" fill="white" opacity="0.2"/>
    <text x="130" y="97" font-size="11" fill="#d4a017" font-family="Arial" text-anchor="middle" font-weight="bold">KEY OF A • DIATONIC</text>
  </g>

  <!-- Right side label -->
  <text x="520" y="180" font-size="32" fill="white" font-family="Georgia, serif" text-anchor="middle" opacity="0.9">Diatonic</text>
  <text x="520" y="215" font-size="32" fill="white" font-family="Georgia, serif" text-anchor="middle" opacity="0.9">Series</text>
  <line x1="450" y1="230" x2="590" y2="230" stroke="#d4a017" stroke-width="2"/>
  <text x="520" y="260" font-size="13" fill="#7eb8d4" font-family="Arial" text-anchor="middle">12 Keys Available</text>
  <text x="520" y="285" font-size="13" fill="#7eb8d4" font-family="Arial" text-anchor="middle">Blues · Country · Folk</text>
  
  <text x="550" y="100" font-size="60" fill="#d4a017" opacity="0.12" font-family="serif">♪</text>
</svg>
